<svg width="22" height="23" viewBox="0 0 22 23" fill="none" xmlns="http://www.w3.org/2000/svg">
<path d="M19.7799 11.8228C19.7799 11.0281 19.7175 10.4483 19.5826 9.84689H10.8105V13.4336H15.9596C15.8558 14.3249 15.2952 15.6673 14.0494 16.5693L14.032 16.6894L16.8056 18.912L16.9977 18.9319C18.7625 17.2459 19.7799 14.7652 19.7799 11.8228Z" fill="#E48700"/>
<path d="M10.8103 21.273C13.3329 21.273 15.4506 20.4139 16.9975 18.932L14.0492 16.5694C13.2603 17.1385 12.2014 17.5359 10.8103 17.5359C8.33963 17.5359 6.24266 15.8499 5.49514 13.5196L5.38558 13.5292L2.50158 15.8381L2.46387 15.9465C4.00026 19.1037 7.15614 21.273 10.8103 21.273Z" fill="#34A853"/>
<path d="M5.49563 13.5196C5.29839 12.9183 5.18424 12.2739 5.18424 11.6081C5.18424 10.9423 5.29839 10.298 5.48525 9.69662L5.48003 9.56855L2.55988 7.22262L2.46434 7.26963C1.83112 8.57978 1.46777 10.051 1.46777 11.6081C1.46777 13.1652 1.83112 14.6364 2.46434 15.9466L5.49563 13.5196Z" fill="#FBBC05"/>
<path d="M10.8104 5.68034C12.5648 5.68034 13.7482 6.46426 14.423 7.11937L17.0598 4.45614C15.4404 2.89903 13.333 1.94328 10.8104 1.94328C7.15616 1.94328 4.00027 4.11249 2.46387 7.26966L5.48479 9.69665C6.24268 7.36634 8.33967 5.68034 10.8104 5.68034Z" fill="#EB4335"/>
</svg>
